<?xml version="1.0" encoding="utf-8"?>
<!-- Generator: Adobe Illustrator 16.0.0, SVG Export Plug-In . SVG Version: 6.00 Build 0)  -->
<!DOCTYPE svg PUBLIC "-//W3C//DTD SVG 1.1//EN" "http://www.w3.org/Graphics/SVG/1.1/DTD/svg11.dtd">
<svg version="1.1" id="Шар_1" xmlns="http://www.w3.org/2000/svg" xmlns:xlink="http://www.w3.org/1999/xlink" x="0px" y="0px"
	 width="20px" height="20px" viewBox="0 0 20 20" enable-background="new 0 0 20 20" xml:space="preserve">
<g>
	<g>
		<defs>
			<path id="SVGID_1_" d="M6.667,2h6.666c1.104,0,2,0.895,2,2c0,0.434-0.14,0.854-0.399,1.2l-2.699,3.6
				c-0.533,0.711-0.533,1.689,0,2.4l2.699,3.6c0.662,0.884,0.483,2.138-0.399,2.8c-0.347,0.262-0.769,0.4-1.2,0.4H6.667
				c-1.104,0-2-0.895-2-2c0-0.434,0.14-0.854,0.4-1.2l2.699-3.6c0.533-0.711,0.533-1.689,0-2.4L5.067,5.2
				c-0.663-0.884-0.484-2.137,0.4-2.8C5.813,2.14,6.234,2,6.667,2z"/>
		</defs>
		<clipPath id="SVGID_2_">
			<use xlink:href="#SVGID_1_"  overflow="visible"/>
		</clipPath>
		<g clip-path="url(#SVGID_2_)">
			<g>
				<defs>
					<rect id="SVGID_3_" width="20" height="20"/>
				</defs>
				<clipPath id="SVGID_4_">
					<use xlink:href="#SVGID_3_"  overflow="visible"/>
				</clipPath>
				<g clip-path="url(#SVGID_4_)">
					<g>
						<g>
							<defs>
								<rect id="SVGID_5_" x="-1" y="-3" width="22" height="26"/>
							</defs>
							<clipPath id="SVGID_6_">
								<use xlink:href="#SVGID_5_"  overflow="visible"/>
							</clipPath>
							<g clip-path="url(#SVGID_6_)">
								<g>
									<defs>
										<rect id="SVGID_7_" x="4" y="2" width="12" height="16"/>
									</defs>
									<clipPath id="SVGID_8_">
										<use xlink:href="#SVGID_7_"  overflow="visible"/>
									</clipPath>
									<rect x="-0.333" y="-3" clip-path="url(#SVGID_8_)" fill="#D8D8D8" width="20.667" height="26"/>
								</g>
								<g>
									<defs>
										<rect id="SVGID_9_" x="-1" y="-3" width="22" height="26"/>
									</defs>
									<clipPath id="SVGID_10_">
										<use xlink:href="#SVGID_9_"  overflow="visible"/>
									</clipPath>
									<g clip-path="url(#SVGID_10_)" enable-background="new    ">
										<g>
											<defs>
												<rect id="SVGID_11_" width="20" height="20"/>
											</defs>
											<clipPath id="SVGID_12_">
												<use xlink:href="#SVGID_11_"  overflow="visible"/>
											</clipPath>
											<g clip-path="url(#SVGID_12_)">
												<g>
													<defs>
														<rect id="SVGID_13_" x="4" y="2" width="12" height="16"/>
													</defs>
													<clipPath id="SVGID_14_">
														<use xlink:href="#SVGID_13_"  overflow="visible"/>
													</clipPath>
													<rect x="-5" y="-5" clip-path="url(#SVGID_14_)" fill="#F0275E" width="30" height="30"/>
												</g>
											</g>
										</g>
									</g>
								</g>
							</g>
						</g>
					</g>
				</g>
			</g>
		</g>
	</g>
</g>
</svg>
