<?xml version="1.0" encoding="utf-8"?>
<!-- Generator: Adobe Illustrator 16.0.0, SVG Export Plug-In . SVG Version: 6.00 Build 0)  -->
<!DOCTYPE svg PUBLIC "-//W3C//DTD SVG 1.1//EN" "http://www.w3.org/Graphics/SVG/1.1/DTD/svg11.dtd">
<svg version="1.1" id="Шар_1" xmlns="http://www.w3.org/2000/svg" xmlns:xlink="http://www.w3.org/1999/xlink" x="0px" y="0px"
	 width="12.666px" height="20px" viewBox="0 0 12.666 20" enable-background="new 0 0 12.666 20" xml:space="preserve">
<g>
	<defs>
		<path id="SVGID_1_" d="M12.508,8.145C12.285,7.747,11.86,7.5,11.4,7.5H8.343l0.52-6.146c0.048-0.567-0.3-1.096-0.846-1.283
			c-0.545-0.188-1.15,0.012-1.471,0.486L0.213,9.932c-0.259,0.383-0.284,0.877-0.063,1.283c0.22,0.406,0.648,0.66,1.116,0.66h3.065
			l-0.528,6.779c-0.045,0.574,0.313,1.104,0.867,1.283C4.801,19.98,4.936,20,5.067,20c0.427,0,0.837-0.215,1.073-0.587l6.333-10
			C12.718,9.027,12.73,8.542,12.508,8.145z"/>
	</defs>
	<use xlink:href="#SVGID_1_"  overflow="visible" fill-rule="evenodd" clip-rule="evenodd" fill="#3C6FFA"/>
	<clipPath id="SVGID_2_">
		<use xlink:href="#SVGID_1_"  overflow="visible"/>
	</clipPath>
	<g clip-path="url(#SVGID_2_)">
		<defs>
			<rect id="SVGID_3_" x="-4" width="20" height="21"/>
		</defs>
		<use xlink:href="#SVGID_3_"  overflow="visible" fill="#3C6FFA"/>
		<clipPath id="SVGID_4_">
			<use xlink:href="#SVGID_3_"  overflow="visible"/>
		</clipPath>
		<g clip-path="url(#SVGID_4_)" enable-background="new    ">
			<g>
				<defs>
					<rect id="SVGID_5_" x="-5" y="-5" width="23" height="30"/>
				</defs>
				<use xlink:href="#SVGID_5_"  overflow="visible" fill="#3C6FFA"/>
				<clipPath id="SVGID_6_">
					<use xlink:href="#SVGID_5_"  overflow="visible"/>
				</clipPath>
				<g clip-path="url(#SVGID_6_)">
					<defs>
						<rect id="SVGID_7_" x="-1" width="14" height="20"/>
					</defs>
					<use xlink:href="#SVGID_7_"  overflow="visible" fill="#3C6FFA"/>
					<clipPath id="SVGID_8_">
						<use xlink:href="#SVGID_7_"  overflow="visible"/>
					</clipPath>
					<rect x="-5" y="-5" clip-path="url(#SVGID_8_)" fill="#3C6FFA" width="22.667" height="30"/>
				</g>
				<g clip-path="url(#SVGID_6_)">
					<defs>
						<rect id="SVGID_9_" x="-4" width="20" height="20"/>
					</defs>
					<use xlink:href="#SVGID_9_"  overflow="visible" fill-rule="evenodd" clip-rule="evenodd" fill="#3C6FFA"/>
					<clipPath id="SVGID_10_">
						<use xlink:href="#SVGID_9_"  overflow="visible"/>
					</clipPath>
					<g clip-path="url(#SVGID_10_)">
						<defs>
							<rect id="SVGID_11_" x="-1" width="14" height="20"/>
						</defs>
						<use xlink:href="#SVGID_11_"  overflow="visible" fill="#3C6FFA"/>
						<clipPath id="SVGID_12_">
							<use xlink:href="#SVGID_11_"  overflow="visible"/>
						</clipPath>
						<rect x="-9" y="-5" clip-path="url(#SVGID_12_)" fill="#3C6FFA" width="30" height="30"/>
					</g>
				</g>
			</g>
		</g>
	</g>
</g>
</svg>
