<?xml version="1.0" encoding="utf-8"?>
<!-- Generator: Adobe Illustrator 16.0.0, SVG Export Plug-In . SVG Version: 6.00 Build 0)  -->
<!DOCTYPE svg PUBLIC "-//W3C//DTD SVG 1.1//EN" "http://www.w3.org/Graphics/SVG/1.1/DTD/svg11.dtd">
<svg version="1.1" id="Шар_1" xmlns="http://www.w3.org/2000/svg" xmlns:xlink="http://www.w3.org/1999/xlink" x="0px" y="0px"
	 width="30px" height="30px" viewBox="-5 -2 30 30" enable-background="new -5 -2 30 30" xml:space="preserve">
<g>
	<g>
		<defs>
			<path id="SVGID_1_" d="M5,13h10c2.762,0,5,2.238,5,5v6c0,1.105-0.895,2-2,2H2c-1.104,0-2-0.895-2-2v-6C0,15.238,2.238,13,5,13z
				 M10,10c-2.762,0-5-2.239-5-5s2.238-5,5-5c2.762,0,5,2.239,5,5S12.762,10,10,10z"/>
		</defs>
		<clipPath id="SVGID_2_">
			<use xlink:href="#SVGID_1_"  overflow="visible"/>
		</clipPath>
		<g clip-path="url(#SVGID_2_)">
			<g>
				<defs>
					<rect id="SVGID_3_" x="-75" y="-62" width="428" height="348"/>
				</defs>
				<clipPath id="SVGID_4_">
					<use xlink:href="#SVGID_3_"  overflow="visible"/>
				</clipPath>
				<g clip-path="url(#SVGID_4_)">
					<g>
						<g>
							<defs>
								<rect id="SVGID_5_" x="-5" y="-5" width="30" height="36"/>
							</defs>
							<clipPath id="SVGID_6_">
								<use xlink:href="#SVGID_5_"  overflow="visible"/>
							</clipPath>
							<g clip-path="url(#SVGID_6_)">
								<g>
									<defs>
										<rect id="SVGID_7_" width="20" height="26"/>
									</defs>
									<clipPath id="SVGID_8_">
										<use xlink:href="#SVGID_7_"  overflow="visible"/>
									</clipPath>
									<rect x="-5" y="-5" clip-path="url(#SVGID_8_)" fill="#D8D8D8" width="30" height="36"/>
								</g>
								<g>
									<defs>
										<rect id="SVGID_9_" x="-5" y="-5" width="30" height="36"/>
									</defs>
									<clipPath id="SVGID_10_">
										<use xlink:href="#SVGID_9_"  overflow="visible"/>
									</clipPath>
									<g clip-path="url(#SVGID_10_)" enable-background="new    ">
										<g>
											<defs>
												<rect id="SVGID_11_" x="-5" y="-2" width="30" height="30"/>
											</defs>
											<clipPath id="SVGID_12_">
												<use xlink:href="#SVGID_11_"  overflow="visible"/>
											</clipPath>
											<g clip-path="url(#SVGID_12_)">
												<g>
													<defs>
														<rect id="SVGID_13_" width="20" height="26"/>
													</defs>
													<clipPath id="SVGID_14_">
														<use xlink:href="#SVGID_13_"  overflow="visible"/>
													</clipPath>
													<rect x="-10" y="-7" clip-path="url(#SVGID_14_)" fill="#3C6FFA" width="40" height="40"/>
												</g>
											</g>
										</g>
									</g>
								</g>
							</g>
						</g>
					</g>
				</g>
			</g>
		</g>
	</g>
</g>
</svg>
