<?xml version="1.0" encoding="utf-8"?>
<!-- Generator: Adobe Illustrator 16.0.0, SVG Export Plug-In . SVG Version: 6.00 Build 0)  -->
<!DOCTYPE svg PUBLIC "-//W3C//DTD SVG 1.1//EN" "http://www.w3.org/Graphics/SVG/1.1/DTD/svg11.dtd">
<svg version="1.1" id="Шар_1" xmlns="http://www.w3.org/2000/svg" xmlns:xlink="http://www.w3.org/1999/xlink" x="0px" y="0px"
	 width="30px" height="30px" viewBox="-5.5 0 30 30" enable-background="new -5.5 0 30 30" xml:space="preserve">
<g>
	<g>
		<defs>
			<path id="SVGID_1_" d="M18.762,12.216C18.427,11.62,17.79,11.25,17.1,11.25h-4.584l0.777-9.219
				c0.072-0.853-0.45-1.644-1.268-1.927c-0.817-0.281-1.728,0.02-2.208,0.731l-9.5,14.063c-0.389,0.575-0.425,1.315-0.094,1.924
				c0.33,0.609,0.974,0.99,1.675,0.99h4.598L5.706,27.98c-0.067,0.861,0.47,1.656,1.301,1.926C7.202,29.971,7.402,30,7.6,30
				c0.641,0,1.257-0.322,1.611-0.881l9.5-15C19.077,13.542,19.098,12.813,18.762,12.216z"/>
		</defs>
		<clipPath id="SVGID_2_">
			<use xlink:href="#SVGID_1_"  overflow="visible"/>
		</clipPath>
		<g clip-path="url(#SVGID_2_)">
			<g>
				<defs>
					<rect id="SVGID_3_" x="-76" y="-60" width="428" height="380"/>
				</defs>
				<clipPath id="SVGID_4_">
					<use xlink:href="#SVGID_3_"  overflow="visible"/>
				</clipPath>
				<g clip-path="url(#SVGID_4_)">
					<g>
						<g>
							<defs>
								<rect id="SVGID_5_" x="-6" y="-5" width="30" height="40"/>
							</defs>
							<clipPath id="SVGID_6_">
								<use xlink:href="#SVGID_5_"  overflow="visible"/>
							</clipPath>
							<g clip-path="url(#SVGID_6_)">
								<g>
									<defs>
										<rect id="SVGID_7_" x="-1" y="-1" width="21" height="31"/>
									</defs>
									<clipPath id="SVGID_8_">
										<use xlink:href="#SVGID_7_"  overflow="visible"/>
									</clipPath>
									<rect x="-5" y="-5" clip-path="url(#SVGID_8_)" fill="#3C6FFA" width="29" height="40"/>
								</g>
								<g>
									<defs>
										<rect id="SVGID_9_" x="-6" y="-5" width="30" height="40"/>
									</defs>
									<clipPath id="SVGID_10_">
										<use xlink:href="#SVGID_9_"  overflow="visible"/>
									</clipPath>
									<g clip-path="url(#SVGID_10_)" enable-background="new    ">
										<g>
											<defs>
												<rect id="SVGID_11_" x="-6" width="30" height="30"/>
											</defs>
											<clipPath id="SVGID_12_">
												<use xlink:href="#SVGID_11_"  overflow="visible"/>
											</clipPath>
											<g clip-path="url(#SVGID_12_)">
												<g>
													<defs>
														<rect id="SVGID_13_" x="-1" y="-1" width="21" height="31"/>
													</defs>
													<clipPath id="SVGID_14_">
														<use xlink:href="#SVGID_13_"  overflow="visible"/>
													</clipPath>
													<rect x="-11" y="-5" clip-path="url(#SVGID_14_)" fill="#3C6FFA" width="40" height="40"/>
												</g>
											</g>
										</g>
									</g>
								</g>
							</g>
						</g>
					</g>
				</g>
			</g>
		</g>
	</g>
</g>
</svg>
