<?xml version="1.0" encoding="utf-8"?>
<!-- Generator: Adobe Illustrator 16.0.0, SVG Export Plug-In . SVG Version: 6.00 Build 0)  -->
<!DOCTYPE svg PUBLIC "-//W3C//DTD SVG 1.1//EN" "http://www.w3.org/Graphics/SVG/1.1/DTD/svg11.dtd">
<svg version="1.1" id="Шар_1" xmlns="http://www.w3.org/2000/svg" xmlns:xlink="http://www.w3.org/1999/xlink" x="0px" y="0px"
	 width="30px" height="30px" viewBox="-3.052 -2.5 30 30" enable-background="new -3.052 -2.5 30 30" xml:space="preserve">
<g>
	<g>
		<defs>
			<path id="SVGID_1_" d="M2.42,10.86l2.958,1.226c-0.334,0.842-0.601,1.709-0.796,2.594l-0.112,0.51l4.24,4.242l0.51-0.109
				c0.884-0.195,1.751-0.461,2.593-0.795l1.228,2.957c0.04,0.098,0.151,0.145,0.25,0.104c0.022-0.01,0.046-0.024,0.063-0.043
				l1.854-1.854c0.61-0.61,0.936-1.453,0.893-2.316l-0.065-1.191c3.432-2.535,6.903-6.979,7.85-14.735
				c0.098-0.697-0.391-1.341-1.088-1.437c-0.114-0.016-0.229-0.016-0.342-0.001C14.701,0.965,10.255,4.44,7.72,7.862L6.53,7.8
				C5.668,7.753,4.826,8.073,4.212,8.68l-1.854,1.854c-0.08,0.068-0.09,0.189-0.021,0.269C2.359,10.829,2.388,10.849,2.42,10.86
				 M14.312,6.342c0.897-0.895,2.352-0.892,3.245,0.006c0.896,0.897,0.894,2.35-0.006,3.245c-0.896,0.892-2.344,0.892-3.239,0
				c-0.896-0.896-0.899-2.348-0.006-3.245C14.308,6.346,14.31,6.344,14.312,6.342 M1.866,19.771
				c-0.49-0.172-1.019-0.215-1.529-0.123c-0.093,0.021-0.188-0.008-0.255-0.076c-0.083-0.082-0.105-0.207-0.058-0.313
				c0.543-1.168,1.984-3.516,4.593-1.618c0.054,0.047,0.059,0.129,0.011,0.182c-0.003,0.005-0.007,0.008-0.011,0.012
				c-0.708,0.557-1.108,1.419-1.078,2.32c0.004,0.107,0.091,0.195,0.198,0.199c0.896,0.035,1.759-0.356,2.32-1.057
				c0.045-0.056,0.127-0.064,0.184-0.018c0.007,0.005,0.013,0.011,0.019,0.018c0.362,0.432,1.359,1.838,0.255,3.197
				c-0.48,0.58-1.173,0.945-1.923,1.02c-1.07,0.115-3.049,0.465-3.857,1.387c-0.099,0.119-0.273,0.133-0.392,0.033
				c-0.042-0.035-0.072-0.082-0.088-0.135C-0.03,23.825-0.474,21.648,1.866,19.771"/>
		</defs>
		<clipPath id="SVGID_2_">
			<use xlink:href="#SVGID_1_"  overflow="visible"/>
		</clipPath>
		<g clip-path="url(#SVGID_2_)">
			<g>
				<defs>
					<rect id="SVGID_3_" x="-73" y="-63" width="428" height="380"/>
				</defs>
				<clipPath id="SVGID_4_">
					<use xlink:href="#SVGID_3_"  overflow="visible"/>
				</clipPath>
				<g clip-path="url(#SVGID_4_)">
					<g>
						<g>
							<defs>
								<rect id="SVGID_5_" x="-5" y="-5" width="34" height="35"/>
							</defs>
							<clipPath id="SVGID_6_">
								<use xlink:href="#SVGID_5_"  overflow="visible"/>
							</clipPath>
							<g clip-path="url(#SVGID_6_)">
								<g>
									<defs>
										<rect id="SVGID_7_" x="-1" y="-1" width="25" height="27"/>
									</defs>
									<clipPath id="SVGID_8_">
										<use xlink:href="#SVGID_7_"  overflow="visible"/>
									</clipPath>
									<rect x="-5" y="-5" clip-path="url(#SVGID_8_)" width="33.896" height="35"/>
								</g>
								<g>
									<defs>
										<rect id="SVGID_9_" x="-5" y="-5" width="34" height="35"/>
									</defs>
									<clipPath id="SVGID_10_">
										<use xlink:href="#SVGID_9_"  overflow="visible"/>
									</clipPath>
									<g clip-path="url(#SVGID_10_)" enable-background="new    ">
										<g>
											<defs>
												<rect id="SVGID_11_" x="-3" y="-3" width="30" height="30"/>
											</defs>
											<clipPath id="SVGID_12_">
												<use xlink:href="#SVGID_11_"  overflow="visible"/>
											</clipPath>
											<g clip-path="url(#SVGID_12_)">
												<g>
													<defs>
														<rect id="SVGID_13_" x="-1" y="-1" width="25" height="27"/>
													</defs>
													<clipPath id="SVGID_14_">
														<use xlink:href="#SVGID_13_"  overflow="visible"/>
													</clipPath>
													<rect x="-8" y="-8" clip-path="url(#SVGID_14_)" fill="#3C6FFA" width="40" height="40"/>
												</g>
											</g>
										</g>
									</g>
								</g>
							</g>
						</g>
					</g>
				</g>
			</g>
		</g>
	</g>
</g>
</svg>
