<?xml version="1.0" encoding="utf-8"?>
<!-- Generator: Adobe Illustrator 16.0.0, SVG Export Plug-In . SVG Version: 6.00 Build 0)  -->
<!DOCTYPE svg PUBLIC "-//W3C//DTD SVG 1.1//EN" "http://www.w3.org/Graphics/SVG/1.1/DTD/svg11.dtd">
<svg version="1.1" id="Шар_1" xmlns="http://www.w3.org/2000/svg" xmlns:xlink="http://www.w3.org/1999/xlink" x="0px" y="0px"
	 width="30px" height="30px" viewBox="-1 -6.5 30 30" enable-background="new -1 -6.5 30 30" xml:space="preserve">
<g>
	<g>
		<defs>
			<path id="SVGID_1_" d="M24,8.027c2.25,0.249,4,2.157,4,4.473c0,2.484-2.016,4.5-4.5,4.5h-19C2.015,17,0,14.984,0,12.5
				c0-2.316,1.75-4.224,4-4.473C4,8.018,4,8.009,4,8c0-2.209,1.791-4,4-4c0.372,0,0.731,0.051,1.073,0.145C9.478,1.791,11.53,0,14,0
				c2.471,0,4.521,1.791,4.927,4.145C19.27,4.051,19.628,4,20,4c2.209,0,4,1.791,4,4C24,8.009,24,8.018,24,8.027z"/>
		</defs>
		<clipPath id="SVGID_2_">
			<use xlink:href="#SVGID_1_"  overflow="visible"/>
		</clipPath>
		<g clip-path="url(#SVGID_2_)">
			<g>
				<defs>
					<rect id="SVGID_3_" x="-71" y="-66" width="428" height="348"/>
				</defs>
				<clipPath id="SVGID_4_">
					<use xlink:href="#SVGID_3_"  overflow="visible"/>
				</clipPath>
				<g clip-path="url(#SVGID_4_)">
					<g>
						<g>
							<defs>
								<rect id="SVGID_5_" x="-5" y="-6" width="38" height="30"/>
							</defs>
							<clipPath id="SVGID_6_">
								<use xlink:href="#SVGID_5_"  overflow="visible"/>
							</clipPath>
							<g clip-path="url(#SVGID_6_)">
								<g>
									<defs>
										<rect id="SVGID_7_" width="28" height="17"/>
									</defs>
									<clipPath id="SVGID_8_">
										<use xlink:href="#SVGID_7_"  overflow="visible"/>
									</clipPath>
									<rect x="-5" y="-5" clip-path="url(#SVGID_8_)" fill="#3C6FFA" width="38" height="27"/>
								</g>
								<g>
									<defs>
										<rect id="SVGID_9_" x="-5" y="-6" width="38" height="30"/>
									</defs>
									<clipPath id="SVGID_10_">
										<use xlink:href="#SVGID_9_"  overflow="visible"/>
									</clipPath>
									<g clip-path="url(#SVGID_10_)" enable-background="new    ">
										<g>
											<defs>
												<rect id="SVGID_11_" x="-1" y="-6" width="30" height="30"/>
											</defs>
											<clipPath id="SVGID_12_">
												<use xlink:href="#SVGID_11_"  overflow="visible"/>
											</clipPath>
											<g clip-path="url(#SVGID_12_)">
												<g>
													<defs>
														<rect id="SVGID_13_" width="28" height="17"/>
													</defs>
													<clipPath id="SVGID_14_">
														<use xlink:href="#SVGID_13_"  overflow="visible"/>
													</clipPath>
													<rect x="-6" y="-11" clip-path="url(#SVGID_14_)" fill="#3C6FFA" width="40" height="40"/>
												</g>
											</g>
										</g>
									</g>
								</g>
							</g>
						</g>
					</g>
				</g>
			</g>
		</g>
	</g>
</g>
</svg>
