<?xml version="1.0" encoding="utf-8"?>
<!-- Generator: Adobe Illustrator 16.0.0, SVG Export Plug-In . SVG Version: 6.00 Build 0)  -->
<!DOCTYPE svg PUBLIC "-//W3C//DTD SVG 1.1//EN" "http://www.w3.org/Graphics/SVG/1.1/DTD/svg11.dtd">
<svg version="1.1" id="Шар_1" xmlns="http://www.w3.org/2000/svg" xmlns:xlink="http://www.w3.org/1999/xlink" x="0px" y="0px"
	 width="127.219px" height="28.931px" viewBox="0 0 127.219 28.931" enable-background="new 0 0 127.219 28.931"
	 xml:space="preserve">
<g>
	<defs>
		<path id="SVGID_1_" d="M122.596,26.038c0-1.197,0.906-2.102,2.066-2.102c1.144,0,2.051,0.904,2.051,2.102
			c0,1.219-0.907,2.12-2.051,2.12C123.502,28.158,122.596,27.257,122.596,26.038z M124.662,28.577c1.379,0,2.557-1.072,2.557-2.539
			c0-1.453-1.178-2.525-2.557-2.525c-1.396,0-2.573,1.072-2.573,2.525C122.089,27.505,123.267,28.577,124.662,28.577z
			 M124.124,26.24h0.511l0.77,1.265h0.498l-0.832-1.285c0.429-0.053,0.757-0.282,0.757-0.805c0-0.574-0.341-0.83-1.032-0.83h-1.111
			v2.92h0.44V26.24z M124.124,25.864v-0.902h0.602c0.31,0,0.639,0.065,0.639,0.426c0,0.451-0.336,0.477-0.71,0.477H124.124z
			 M45.718,15.897v12.332h-4.482l-0.112-1.857c-1.376,1.703-3.61,2.316-5.907,2.316c-3.464,0-6.735-1.707-6.804-5.686
			c-0.102-6.25,7.034-6.692,11.517-6.692h0.896v-0.248c0-2.067-1.368-3.184-3.942-3.184c-1.85,0-3.674,0.743-5.023,2.008
			l-2.934-2.981c2.666-2.16,5.436-2.966,8.389-2.966C43.146,8.939,45.718,11.635,45.718,15.897z M40.825,20.017h-0.707
			c-2.408,0.006-6.635,0.123-6.619,2.641c0.021,3.549,7.326,2.42,7.326-1.857V20.017z M112.692,20.603H98.749
			c0.397,2.406,2.288,3.854,4.643,3.92c2.292,0.061,3.57-0.63,5.247-2.326l3.318,2.529c-2.358,2.906-5.189,3.963-8.411,3.963
			c-5.67,0-9.92-3.964-9.92-9.876c0-5.904,4.228-9.872,9.707-9.872c6.039,0,9.359,3.657,9.359,10.152V20.603z M107.597,16.667
			c-0.154-2.379-1.938-3.884-4.393-3.788c-2.471,0.093-4.116,1.702-4.455,3.788H107.597z M25.969,26.142
			c-3.447,1.845-6.893,2.91-11.445,2.777C6.088,28.661,0,23.423,0,14.575C0,5.765,6.146,0.135,14.528,0.002
			c4.249-0.064,8.051,1.014,11.023,3.635L21.971,7.26c-1.839-1.568-4.546-2.485-7.778-2.338C8.918,5.167,5.74,9,5.67,14.272
			c-0.07,5.711,3.432,9.646,8.906,9.789c2.576,0.064,4.422-0.281,6.017-0.998v-5.837h-5.688l0.384-4.787h10.681V26.142z
			 M60.066,9.399l-0.395,4.397H58.29c-2.862,0-4.285,2.296-4.285,4.501v9.931h-5.086V9.399h4.816l0.101,2.35
			c1.016-1.612,2.782-2.35,4.964-2.35H60.066z M71.885,23.829l-0.354,4.285c-1.222,0.326-2.302,0.444-3.613,0.444
			c-4.793,0-6.181-2.198-6.181-6.614V4.088h5.085v5.31h5.061l-0.352,4.397h-4.709v7.767c0,1.771,0.484,2.729,2.306,2.729
			C69.914,24.292,70.796,24.195,71.885,23.829 M91.333,28.229h-5.085v-9.954c0-2.085-0.179-4.709-3.112-4.709
			c-2.821,0-3.948,2.039-3.948,4.412v10.251h-5.084V9.399h4.715l0.106,2.406c1.011-1.611,2.892-2.865,5.667-2.865
			c5.125,0,6.741,3.657,6.741,7.465V28.229z M126.563,9.399l-0.365,4.397H124.4c-2.867,0-4.357,2.296-4.357,4.501v9.931h-5.081
			V9.399h4.814l0.108,2.35c1.012-1.612,2.777-2.35,4.957-2.35H126.563z"/>
	</defs>
	<clipPath id="SVGID_2_">
		<use xlink:href="#SVGID_1_"  overflow="visible"/>
	</clipPath>
	<g clip-path="url(#SVGID_2_)">
		<defs>
			<rect id="SVGID_3_" x="-1" y="-1.601" width="129" height="32"/>
		</defs>
		<clipPath id="SVGID_4_">
			<use xlink:href="#SVGID_3_"  overflow="visible"/>
		</clipPath>
		<g clip-path="url(#SVGID_4_)" enable-background="new    ">
			<g>
				<defs>
					<rect id="SVGID_5_" x="-5" y="-5.601" width="138" height="40"/>
				</defs>
				<clipPath id="SVGID_6_">
					<use xlink:href="#SVGID_5_"  overflow="visible"/>
				</clipPath>
				<g clip-path="url(#SVGID_6_)">
					<defs>
						<rect id="SVGID_7_" x="-1" y="-0.601" width="129" height="30"/>
					</defs>
					<clipPath id="SVGID_8_">
						<use xlink:href="#SVGID_7_"  overflow="visible"/>
					</clipPath>
					<rect x="-5" y="-5" clip-path="url(#SVGID_8_)" fill="#104B86" width="137.219" height="38.931"/>
				</g>
				<g clip-path="url(#SVGID_6_)">
					<defs>
						<rect id="SVGID_9_" y="-1.601" width="128" height="32"/>
					</defs>
					<clipPath id="SVGID_10_">
						<use xlink:href="#SVGID_9_"  overflow="visible"/>
					</clipPath>
					<g clip-path="url(#SVGID_10_)">
						<defs>
							<rect id="SVGID_11_" x="-1" y="-0.601" width="129" height="30"/>
						</defs>
						<clipPath id="SVGID_12_">
							<use xlink:href="#SVGID_11_"  overflow="visible"/>
						</clipPath>
						<rect x="-5" y="-6.601" clip-path="url(#SVGID_12_)" fill="#FFFFFF" width="138" height="42"/>
					</g>
				</g>
			</g>
		</g>
	</g>
</g>
</svg>
